<svg width="315" height="210" viewBox="0 0 315 210" fill="none" xmlns="http://www.w3.org/2000/svg">
    <g clip-path="url(#clip0_224_2)">
        <path d="M112.991 120.857C123.786 101.807 144.378 87.1801 166.176 88.5892C150.097 106.13 140.721 128.81 139.707 152.618C139.349 161.801 139.904 172.052 133.826 178.928C130.044 183.206 124.263 185.278 118.58 185.713C112.896 186.148 107.213 185.118 101.605 184.092L100.245 184.511C99.727 162.604 102.195 139.907 112.991 120.857Z" fill="#F0F0F0"/>
        <path d="M166.208 89.048C150.089 96.8324 136.344 109.833 127.906 125.689C126.082 129.117 124.529 132.753 123.852 136.598C123.174 140.445 123.647 144.107 124.957 147.761C126.154 151.101 127.765 154.378 128.132 157.952C128.519 161.719 127.137 165.242 124.65 168.037C121.607 171.458 117.52 173.577 113.452 175.511C108.934 177.657 104.209 179.815 101.009 183.822C100.622 184.307 99.8934 183.675 100.28 183.191C105.847 176.22 115.375 174.91 121.983 169.295C125.066 166.675 127.38 163.107 127.234 158.926C127.107 155.27 125.449 151.889 124.207 148.517C122.904 144.977 122.254 141.418 122.721 137.643C123.199 133.782 124.614 130.077 126.343 126.618C130.242 118.815 135.577 111.652 141.69 105.46C148.715 98.3421 156.902 92.4824 165.896 88.1341C166.453 87.8652 166.761 88.7808 166.208 89.048Z" fill="white"/>
        <path d="M130.378 120.39C127.907 118.577 126.158 115.942 125.445 112.956C124.731 109.97 125.099 106.826 126.483 104.087C126.765 103.533 127.635 103.947 127.353 104.501C126.06 107.049 125.717 109.978 126.387 112.757C127.057 115.537 128.696 117.984 131.007 119.659C131.509 120.023 130.877 120.752 130.378 120.39Z" fill="white"/>
        <path d="M124.127 146.147C130.32 145.239 135.943 142.024 139.877 137.142C140.266 136.658 140.995 137.289 140.606 137.773C136.503 142.846 130.644 146.18 124.198 147.11C123.584 147.199 123.516 146.235 124.127 146.147V146.147Z" fill="white"/>
        <path d="M149.19 99.5304C150.001 100.432 151.022 101.117 152.162 101.524C153.301 101.932 154.524 102.049 155.72 101.866C156.333 101.77 156.399 102.733 155.79 102.829C154.468 103.025 153.118 102.894 151.858 102.447C150.598 101.999 149.466 101.249 148.561 100.261C148.468 100.176 148.411 100.057 148.402 99.9308C148.393 99.8043 148.432 99.6791 148.512 99.5804C148.595 99.4841 148.714 99.4247 148.841 99.4154C148.968 99.406 149.094 99.4474 149.19 99.5304Z" fill="white"/>
        <path d="M209.548 148.684C209.167 148.755 208.786 148.826 208.401 148.904C203.283 149.883 198.252 151.278 193.359 153.075C192.978 153.208 192.595 153.348 192.219 153.492C180.476 157.947 169.659 164.55 160.319 172.966C156.606 176.318 153.152 179.949 149.988 183.827C145.618 189.183 141.305 195.339 135.594 198.831C135.003 199.202 134.388 199.536 133.756 199.831L100.86 186.143C100.801 186.074 100.738 186.013 100.679 185.944L99.3403 185.458C99.4896 185.246 99.649 185.03 99.7982 184.819C99.8843 184.696 99.9777 184.576 100.064 184.453C100.124 184.372 100.184 184.291 100.233 184.214C100.253 184.187 100.273 184.16 100.289 184.141C100.339 184.064 100.393 183.998 100.439 183.929C101.326 182.719 102.224 181.513 103.131 180.311C103.134 180.303 103.134 180.303 103.145 180.299C110.082 171.158 117.842 162.518 126.662 155.334C126.927 155.118 127.195 154.894 127.476 154.685C131.469 151.469 135.718 148.585 140.18 146.064C142.628 144.691 145.143 143.443 147.716 142.325C154.371 139.45 161.435 137.643 168.65 136.97C183.032 135.63 197.681 138.919 208.712 147.983C208.994 148.215 209.269 148.444 209.548 148.684Z" fill="#F0F0F0"/>
        <path d="M209.3 149.072C191.758 145.552 172.98 147.631 156.728 155.195C153.214 156.83 149.791 158.795 146.942 161.456C144.092 164.118 142.273 167.328 141.126 171.036C140.077 174.427 139.396 178.016 137.544 181.091C135.592 184.333 132.375 186.311 128.711 187.041C124.228 187.934 119.693 187.158 115.284 186.244C110.389 185.23 105.321 184.099 100.362 185.365C99.761 185.519 99.5587 184.575 100.159 184.421C108.787 182.218 117.181 186.926 125.827 186.434C129.861 186.204 133.851 184.753 136.243 181.327C138.335 178.33 139.041 174.629 140.073 171.188C141.157 167.574 142.774 164.339 145.413 161.608C148.112 158.814 151.465 156.71 154.922 154.992C162.718 151.117 171.277 148.62 179.874 147.368C189.755 145.928 199.808 146.193 209.6 148.154C210.206 148.276 209.902 149.193 209.3 149.072V149.072Z" fill="white"/>
        <path d="M161.881 152.457C160.996 149.517 161.182 146.357 162.404 143.542C163.627 140.726 165.808 138.439 168.557 137.087C169.114 136.816 169.56 137.671 169.003 137.943C166.44 139.197 164.409 141.328 163.276 143.952C162.143 146.576 161.982 149.52 162.822 152.253C163.004 152.847 162.062 153.047 161.881 152.457Z" fill="white"/>
        <path d="M141.432 169.247C146.921 172.262 153.341 173.092 159.412 171.569C160.014 171.418 160.216 172.362 159.615 172.513C153.295 174.086 146.615 173.209 140.91 170.059C140.367 169.758 140.892 168.948 141.432 169.247Z" fill="white"/>
        <path d="M189.421 147.163C189.528 148.373 189.931 149.536 190.597 150.55C191.262 151.564 192.168 152.396 193.233 152.972C193.78 153.265 193.255 154.075 192.711 153.783C191.538 153.142 190.538 152.221 189.801 151.103C189.063 149.985 188.61 148.702 188.48 147.367C188.458 147.242 188.483 147.114 188.552 147.007C188.62 146.901 188.727 146.824 188.849 146.793C188.974 146.767 189.104 146.791 189.211 146.86C189.318 146.93 189.394 147.039 189.421 147.163Z" fill="white"/>
        <path d="M146.884 171.266C142.277 148.92 136.518 141.47 136.518 141.47L134.318 139.759L131.673 137.697L131.685 137.432L131.058 137.218L130.911 137.103L130.669 136.917L130.63 136.959L130.548 137.045L118.576 132.962L103.388 127.787L96.355 118.616C95.2095 117.123 93.7348 115.916 92.0465 115.09C90.3581 114.264 88.502 113.841 86.6236 113.855L64.1621 114.022C61.125 114.044 58.2062 115.206 55.9795 117.277L41.2159 131.015L18.2114 142.036L18.1725 141.998L17.931 142.171L14.3766 143.876L14.5232 144.641L12.3233 146.234C12.3233 146.234 6.5646 153.166 1.95765 173.958C0.785688 179.249 0.208808 190.598 0.00058515 204.583C-0.00987386 205.29 0.11997 205.993 0.382563 206.649C0.645157 207.306 1.03526 207.904 1.5302 208.408C2.02513 208.912 2.61502 209.312 3.26557 209.586C3.91611 209.859 4.61434 210 5.31964 210H128.191V210H143.527C144.232 210 144.93 209.859 145.58 209.586C146.23 209.313 146.82 208.913 147.315 208.41C147.809 207.906 148.2 207.309 148.463 206.653C148.726 205.997 148.856 205.295 148.846 204.588C148.643 189.371 148.066 177.003 146.884 171.266Z" fill="#3F3D56"/>
        <path d="M162.649 19.4873C157.868 19.4873 153.284 21.3923 149.903 24.7833C146.523 28.1742 144.624 32.7733 144.624 37.5688C144.624 42.3643 146.523 46.9634 149.903 50.3544C153.284 53.7453 157.868 55.6503 162.649 55.6503H296.975C301.756 55.6503 306.34 53.7453 309.721 50.3544C313.101 46.9634 315 42.3643 315 37.5688C315 32.7733 313.101 28.1742 309.721 24.7833C306.34 21.3923 301.756 19.4873 296.975 19.4873H162.649Z" fill="#E5E5E5"/>
        <path d="M162.649 23.1465C158.836 23.1465 155.179 24.666 152.483 27.3706C149.787 30.0753 148.272 33.7437 148.272 37.5687C148.272 41.3936 149.787 45.062 152.483 47.7667C155.179 50.4713 158.836 51.9908 162.649 51.9908H296.975C300.788 51.9908 304.445 50.4713 307.141 47.7667C309.837 45.062 311.352 41.3936 311.352 37.5687C311.352 33.7437 309.837 30.0753 307.141 27.3706C304.445 24.666 300.788 23.1465 296.975 23.1465H162.649Z" fill="white"/>
        <path d="M78.9204 105.39C95.1724 105.39 108.347 92.1735 108.347 75.8702C108.347 59.567 95.1724 46.3506 78.9204 46.3506C62.6685 46.3506 49.4937 59.567 49.4937 75.8702C49.4937 92.1735 62.6685 105.39 78.9204 105.39Z" fill="#9E616A"/>
        <path d="M71.3922 103.944C71.2665 103.667 71.1411 103.388 71.0161 103.109C71.0643 103.11 71.112 103.117 71.1602 103.118L71.3922 103.944Z" fill="#2F2E41"/>
        <path d="M48.675 47.693C50.1633 46.502 51.9028 45.4061 53.8057 45.4677C55.7085 45.5293 57.6382 47.2533 57.2439 49.1218C60.7391 42.9138 66.3024 38.1391 72.9572 35.6358C79.612 33.1325 86.9332 33.0607 93.6356 35.4328C98.365 37.1067 103.003 40.4553 104.089 45.3668C104.368 46.6276 104.428 48.01 105.213 49.0338C106.202 50.3246 108.095 50.6166 109.654 50.1625C109.67 50.158 109.685 50.1534 109.701 50.1487C109.964 50.0585 110.248 50.0497 110.517 50.1233C110.785 50.1969 111.025 50.3496 111.206 50.5617C111.387 50.7737 111.501 51.0354 111.532 51.3128C111.563 51.5902 111.51 51.8706 111.381 52.1176L110.043 54.6212C111.729 54.9984 113.482 54.961 115.152 54.5122C115.429 54.4393 115.722 54.4541 115.99 54.5549C116.259 54.6556 116.49 54.8371 116.651 55.0747C116.813 55.3123 116.897 55.5941 116.893 55.8817C116.889 56.1693 116.796 56.4484 116.627 56.6808C112.214 62.758 104.842 66.6824 97.3197 66.6362C91.973 66.6035 86.5712 64.755 81.3677 65.9884C79.3546 66.4656 77.4736 67.3888 75.8626 68.6903C74.2516 69.9919 72.9516 71.6387 72.0578 73.51C71.164 75.3813 70.6992 77.4296 70.6975 79.5046C70.6958 81.5796 71.1572 83.6287 72.0479 85.5015C70.4493 83.7475 67.3592 84.1628 65.724 85.8825C64.0888 87.6023 63.6655 90.1691 63.8303 92.54C64.0822 96.1661 65.4985 99.583 66.9915 102.908C54.4737 102.513 42.6339 93.7044 38.6486 81.7903C34.6466 69.8263 38.8408 55.5628 48.675 47.693Z" fill="#2F2E41"/>
        <path opacity="0.2" d="M28.9634 164.52L37.2169 209.568L42.1692 210L28.9634 164.52Z" fill="black"/>
        <path opacity="0.2" d="M119.878 161.122L111.625 209.535L106.672 210L119.878 161.122Z" fill="black"/>
        <path d="M55.7146 32.5324C54.1321 33.1953 52.4808 32.4688 51.7883 30.8051C51.0852 29.116 51.7419 27.4013 53.3497 26.7278C54.9577 26.0542 56.5796 26.7825 57.294 28.4988C57.9978 30.1895 57.3482 31.8481 55.7146 32.5324ZM52.6832 23.403L51.4249 23.9301C51.1106 24.0602 50.759 24.0672 50.4397 23.9498C50.1205 23.8323 49.8568 23.5989 49.7009 23.2958L49.6387 23.1737C48.2848 20.7243 48.1298 17.7474 49.1804 14.3304C50.1536 11.2651 50.5578 9.10936 49.7449 7.15634C48.805 4.89829 46.7979 4.19095 44.2384 5.21561C43.2458 5.63143 42.9299 5.6248 42.1487 6.4022C41.9787 6.57336 41.7762 6.70844 41.5531 6.79939C41.33 6.89033 41.091 6.93527 40.8502 6.93154C40.6174 6.92879 40.3876 6.87904 40.1744 6.78527C39.9612 6.6915 39.769 6.55562 39.6093 6.38574C39.3016 6.05835 39.1292 5.62604 39.127 5.17609C39.1247 4.72615 39.2927 4.2921 39.5971 3.96162C40.9102 2.58276 42.4939 1.49191 44.2483 0.757905C49.7475 -1.54562 52.5159 1.8552 53.7827 4.89862C55.0218 7.87543 54.3248 10.6374 53.2048 14.2145C52.2663 17.1868 52.321 19.3892 53.3871 21.5791C53.4641 21.7447 53.5069 21.9241 53.513 22.1067C53.5191 22.2893 53.4884 22.4712 53.4226 22.6415C53.3569 22.8119 53.2575 22.9672 53.1304 23.098C53.0033 23.2289 52.8512 23.3326 52.6832 23.403L52.6832 23.403Z" fill="#FF0000"/>
        <path d="M192.32 46.1924H165.594C165.509 46.193 165.425 46.1767 165.346 46.1445C165.268 46.1123 165.196 46.0649 165.136 46.0049C165.076 45.9448 165.028 45.8734 164.995 45.7948C164.963 45.7162 164.946 45.6318 164.946 45.5467C164.946 45.4615 164.963 45.3772 164.995 45.2985C165.028 45.2199 165.076 45.1485 165.136 45.0885C165.196 45.0284 165.268 44.981 165.346 44.9488C165.425 44.9166 165.509 44.9003 165.594 44.9009H192.32C192.49 44.9021 192.652 44.9706 192.772 45.0916C192.892 45.2126 192.959 45.3761 192.959 45.5467C192.959 45.7172 192.892 45.8808 192.772 46.0017C192.652 46.1227 192.49 46.1913 192.32 46.1924Z" fill="#FFD194"/>
        <path d="M226.223 46.4075H199.497C199.412 46.4081 199.328 46.3918 199.25 46.3596C199.171 46.3274 199.099 46.28 199.039 46.2199C198.979 46.1599 198.931 46.0885 198.899 46.0099C198.866 45.9313 198.849 45.8469 198.849 45.7618C198.849 45.6766 198.866 45.5922 198.899 45.5136C198.931 45.435 198.979 45.3636 199.039 45.3036C199.099 45.2435 199.171 45.1961 199.25 45.1639C199.328 45.1317 199.412 45.1154 199.497 45.116H226.223C226.308 45.1154 226.392 45.1317 226.471 45.1639C226.55 45.1961 226.621 45.2435 226.681 45.3036C226.741 45.3636 226.789 45.435 226.822 45.5136C226.855 45.5922 226.871 45.6766 226.871 45.7618C226.871 45.8469 226.855 45.9313 226.822 46.0099C226.789 46.0885 226.741 46.1599 226.681 46.2199C226.621 46.28 226.55 46.3274 226.471 46.3596C226.392 46.3918 226.308 46.4081 226.223 46.4075Z" fill="#FFD194"/>
        <path d="M260.127 46.6228H233.401C233.231 46.6217 233.068 46.5531 232.949 46.4322C232.829 46.3112 232.762 46.1476 232.762 45.9771C232.762 45.8066 232.829 45.643 232.949 45.522C233.068 45.401 233.231 45.3325 233.401 45.3313H260.127C260.212 45.3307 260.296 45.347 260.375 45.3792C260.453 45.4114 260.525 45.4589 260.585 45.5189C260.645 45.5789 260.693 45.6503 260.726 45.7289C260.758 45.8076 260.775 45.8919 260.775 45.9771C260.775 46.0622 260.758 46.1466 260.726 46.2252C260.693 46.3039 260.645 46.3752 260.585 46.4353C260.525 46.4953 260.453 46.5428 260.375 46.575C260.296 46.6071 260.212 46.6234 260.127 46.6228H260.127Z" fill="#FFD194"/>
        <path d="M294.03 46.8382H267.304C267.134 46.837 266.972 46.7684 266.852 46.6475C266.732 46.5265 266.665 46.3629 266.665 46.1924C266.665 46.0219 266.732 45.8583 266.852 45.7373C266.972 45.6163 267.134 45.5478 267.304 45.5466H294.03C294.2 45.5478 294.363 45.6163 294.483 45.7373C294.603 45.8583 294.67 46.0219 294.67 46.1924C294.67 46.3629 294.603 46.5265 294.483 46.6475C294.363 46.7684 294.2 46.837 294.03 46.8382Z" fill="#FFD194"/>
        <path d="M178.898 40.2492C181.641 40.2492 183.865 38.0183 183.865 35.2663C183.865 32.5144 181.641 30.2834 178.898 30.2834C176.155 30.2834 173.931 32.5144 173.931 35.2663C173.931 38.0183 176.155 40.2492 178.898 40.2492Z" fill="#FFD194"/>
        <path d="M213.006 40.2492C215.75 40.2492 217.974 38.0183 217.974 35.2663C217.974 32.5144 215.75 30.2834 213.006 30.2834C210.263 30.2834 208.039 32.5144 208.039 35.2663C208.039 38.0183 210.263 40.2492 213.006 40.2492Z" fill="#FFD194"/>
        <path d="M247.115 40.2492C249.858 40.2492 252.082 38.0183 252.082 35.2663C252.082 32.5144 249.858 30.2834 247.115 30.2834C244.371 30.2834 242.147 32.5144 242.147 35.2663C242.147 38.0183 244.371 40.2492 247.115 40.2492Z" fill="#FFD194"/>
        <path d="M281.223 40.2492C283.966 40.2492 286.19 38.0183 286.19 35.2663C286.19 32.5144 283.966 30.2834 281.223 30.2834C278.48 30.2834 276.256 32.5144 276.256 35.2663C276.256 38.0183 278.48 40.2492 281.223 40.2492Z" fill="#FFD194"/>
    </g>
    <defs>
        <clipPath id="clip0_224_2">
            <rect width="315" height="210" fill="white"/>
        </clipPath>
    </defs>
</svg>
