<svg width="267" height="253" viewBox="0 0 267 253" fill="none" xmlns="http://www.w3.org/2000/svg">
    <g clip-path="url(#clip0_43_353)">
        <path d="M136.678 250.317C135.38 250.317 134.069 250.296 132.782 250.255L132.811 249.304C134.659 249.363 136.545 249.379 138.402 249.353L138.415 250.305C137.837 250.312 137.258 250.317 136.678 250.317ZM144.044 250.096L143.989 249.146C145.84 249.035 147.714 248.879 149.561 248.682L149.658 249.628C147.798 249.827 145.909 249.984 144.044 250.096V250.096ZM127.157 249.948C125.291 249.802 123.405 249.612 121.552 249.38L121.666 248.436C123.505 248.665 125.377 248.855 127.229 248.999L127.157 249.948ZM155.245 248.901L155.105 247.96C156.944 247.676 158.797 247.347 160.611 246.98L160.794 247.913C158.965 248.283 157.098 248.615 155.245 248.901V248.901ZM115.978 248.553C114.135 248.235 112.273 247.87 110.447 247.466L110.645 246.536C112.458 246.937 114.305 247.299 116.134 247.614L115.978 248.553ZM166.292 246.668L166.068 245.744C167.873 245.29 169.688 244.788 171.463 244.252L171.729 245.165C169.94 245.705 168.111 246.21 166.292 246.668V246.668ZM104.971 246.122C103.163 245.633 101.343 245.094 99.562 244.521L99.8438 243.614C101.611 244.183 103.417 244.717 105.212 245.202L104.971 246.122ZM177.091 243.409L176.784 242.51C178.535 241.891 180.297 241.221 182.021 240.519L182.368 241.403C180.631 242.11 178.856 242.785 177.091 243.409L177.091 243.409ZM94.2171 242.663C92.4607 242.007 90.6933 241.298 88.9645 240.557L89.3277 239.68C91.0432 240.415 92.7969 241.118 94.5401 241.77L94.2171 242.663ZM187.537 239.157L187.149 238.291C188.832 237.513 190.522 236.683 192.175 235.824L192.601 236.672C190.936 237.537 189.232 238.373 187.537 239.157V239.157ZM83.8146 238.208C82.1262 237.39 80.4315 236.519 78.7781 235.62L79.219 234.781C80.86 235.673 82.5415 236.537 84.217 237.349L83.8146 238.208ZM197.548 233.952L197.084 233.125C198.698 232.189 200.308 231.204 201.87 230.199L202.37 231.003C200.796 232.016 199.174 233.009 197.548 233.952V233.952ZM73.8652 232.801C72.2593 231.829 70.6512 230.804 69.0857 229.755L69.6006 228.961C71.154 230.002 72.7498 231.019 74.3436 231.983L73.8652 232.801ZM207.055 227.833L206.52 227.053C208.039 225.973 209.555 224.843 211.026 223.693L211.596 224.448C210.114 225.606 208.586 226.745 207.055 227.833ZM64.4495 226.493C62.9393 225.377 61.4308 224.208 59.9654 223.018L60.5493 222.274C62.0035 223.455 63.5006 224.615 64.9991 225.722L64.4495 226.493ZM215.98 220.855L215.377 220.128C216.793 218.912 218.202 217.646 219.566 216.363L220.201 217.062C218.827 218.355 217.407 219.631 215.98 220.855V220.855ZM55.6426 219.339C54.2361 218.086 52.8388 216.783 51.4897 215.466L52.1375 214.779C53.4766 216.087 54.8632 217.38 56.2589 218.624L55.6426 219.339ZM224.248 213.076L223.582 212.408C224.887 211.062 226.178 209.67 227.419 208.27L228.114 208.907C226.864 210.318 225.563 211.721 224.248 213.076V213.076ZM47.5154 211.405C46.225 210.025 44.9506 208.598 43.7276 207.165L44.4343 206.541C45.648 207.964 46.9126 209.379 48.1934 210.749L47.5154 211.405ZM231.79 204.562L231.067 203.958C232.246 202.498 233.407 200.992 234.518 199.48L235.268 200.05C234.148 201.573 232.978 203.091 231.79 204.562ZM40.1341 202.755C38.9753 201.265 37.8342 199.728 36.7426 198.184L37.5019 197.628C38.5853 199.16 39.7177 200.686 40.8678 202.165L40.1341 202.755ZM238.54 195.38L237.766 194.846C238.809 193.283 239.831 191.674 240.803 190.064L241.601 190.562C240.621 192.185 239.591 193.806 238.54 195.38ZM33.5605 193.463C32.541 191.873 31.5432 190.237 30.5945 188.599L31.4004 188.116C32.342 189.741 33.3323 191.365 34.344 192.942L33.5605 193.463ZM244.442 185.605L243.623 185.145C244.521 183.492 245.394 181.794 246.217 180.098L247.056 180.52C246.226 182.228 245.347 183.939 244.442 185.605V185.605ZM27.8509 183.604C26.9783 181.926 26.1322 180.205 25.3361 178.488L26.1822 178.082C26.9723 179.786 27.8118 181.494 28.6778 183.159L27.8509 183.604ZM249.438 175.316L248.581 174.934C249.327 173.202 250.043 171.428 250.709 169.662L251.583 170.003C250.911 171.783 250.189 173.571 249.438 175.316V175.316ZM23.0551 173.262C22.3379 171.511 21.651 169.72 21.0136 167.937L21.8931 167.612C22.5254 169.381 23.207 171.159 23.9186 172.896L23.0551 173.262ZM253.484 164.594L252.596 164.294C253.18 162.505 253.731 160.676 254.233 158.857L255.134 159.115C254.628 160.947 254.072 162.791 253.484 164.594L253.484 164.594ZM19.2113 162.508C18.6546 160.694 18.1315 158.841 17.6566 157L18.5616 156.758C19.0329 158.586 19.5521 160.425 20.1045 162.225L19.2113 162.508ZM256.534 153.564L255.622 153.348C256.041 151.514 256.424 149.64 256.761 147.781L257.681 147.953C257.342 149.827 256.956 151.715 256.534 153.564L256.534 153.564ZM16.3536 151.425C15.9634 149.566 15.6103 147.672 15.3042 145.795L16.227 145.639C16.5311 147.502 16.8815 149.382 17.2687 151.226L16.3536 151.425ZM258.573 142.296L257.645 142.167C257.897 140.303 258.109 138.402 258.277 136.517L259.209 136.602C259.04 138.502 258.826 140.417 258.573 142.296L258.573 142.296ZM14.5097 140.123C14.289 138.239 14.1079 136.32 13.971 134.419L14.9044 134.35C15.0399 136.236 15.2199 138.14 15.4389 140.01L14.5097 140.123ZM259.59 130.886L258.655 130.843C258.739 128.957 258.781 127.045 258.781 125.158H259.717C259.717 127.059 259.674 128.986 259.59 130.886L259.59 130.886ZM13.6876 128.696C13.6556 127.529 13.6394 126.339 13.6392 125.158C13.6392 124.426 13.6453 123.695 13.6577 122.965L14.5933 122.982C14.581 123.706 14.5748 124.431 14.5748 125.158C14.575 126.33 14.5913 127.512 14.6228 128.67L13.6876 128.696ZM258.774 123.831C258.755 121.943 258.693 120.031 258.59 118.145L259.524 118.092C259.628 119.992 259.69 121.919 259.71 123.82L258.774 123.831ZM14.8154 117.3L13.8816 117.24C13.9983 115.339 14.1596 113.418 14.3604 111.531L15.2906 111.634C15.0911 113.506 14.9315 115.412 14.8154 117.3V117.3ZM258.152 112.477C257.966 110.601 257.733 108.702 257.462 106.834L258.387 106.695C258.66 108.577 258.895 110.49 259.084 112.381L258.152 112.477ZM16.019 105.996L15.0943 105.851C15.381 103.968 15.7141 102.07 16.0843 100.21L17.0012 100.398C16.634 102.245 16.3034 104.128 16.019 105.996V105.996ZM256.517 101.23C256.161 99.3733 255.758 97.5043 255.32 95.6752L256.229 95.4502C256.67 97.2934 257.076 99.1767 257.436 101.047L256.517 101.23ZM18.2353 94.8523L17.3277 94.6209C17.782 92.7776 18.2853 90.9188 18.8235 89.0962L19.7194 89.3699C19.1855 91.1786 18.6862 93.0231 18.2353 94.8523ZM253.873 90.1822C253.351 88.37 252.781 86.5471 252.179 84.7634L253.063 84.4539C253.671 86.2513 254.245 88.0886 254.771 89.9146L253.873 90.1822ZM21.4562 83.9481L20.5735 83.6325C21.1953 81.8333 21.8667 80.0255 22.5689 78.2593L23.4365 78.6162C22.7395 80.3687 22.0732 82.1628 21.4562 83.9481H21.4562ZM250.24 79.4297C249.557 77.6781 248.826 75.9203 248.067 74.2047L248.92 73.8139C249.685 75.5427 250.422 77.314 251.11 79.0788L250.24 79.4297ZM25.6556 73.3847L24.8054 72.9873C25.5869 71.2562 26.4186 69.5202 27.2775 67.8276L28.109 68.264C27.2565 69.9438 26.4312 71.6665 25.6556 73.3847ZM245.66 69.0847C244.823 67.4045 243.936 65.7208 243.023 64.0809L243.838 63.612C244.757 65.2646 245.651 66.9611 246.495 68.6544L245.66 69.0847ZM30.791 63.2649L29.9801 62.7899C30.9134 61.1413 31.8977 59.491 32.9058 57.8854L33.6944 58.3975C32.6941 59.9911 31.7171 61.6288 30.791 63.2649H30.791ZM240.163 59.2031C239.175 57.6021 238.14 56.0071 237.086 54.4624L237.855 53.92C238.916 55.4766 239.96 57.0837 240.956 58.697L240.163 59.2031ZM36.8134 53.6716L36.0486 53.1232C37.1272 51.5671 38.255 50.016 39.4013 48.5131L40.1405 49.0963C39.0031 50.5881 37.8836 52.1273 36.8134 53.6716ZM233.799 49.8682C232.671 48.366 231.497 46.8725 230.308 45.4295L231.025 44.8182C232.223 46.2723 233.406 47.7769 234.543 49.2905L233.799 49.8682ZM43.6686 44.6816L42.9564 44.0644C44.1668 42.6181 45.4285 41.1786 46.7061 39.7858L47.39 40.435C46.1222 41.8174 44.8702 43.2462 43.6686 44.6816ZM226.622 41.1561C225.365 39.7644 224.061 38.3851 222.747 37.0569L223.407 36.3816C224.731 37.7203 226.045 39.1099 227.311 40.512L226.622 41.1561ZM51.2964 36.3668L50.6422 35.6864C51.9801 34.355 53.3646 33.0386 54.7569 31.7741L55.38 32.4842C53.9983 33.7389 52.6243 35.0453 51.2964 36.3668H51.2964ZM218.694 33.1404C217.316 31.8696 215.894 30.6162 214.467 29.4151L215.063 28.6817C216.501 29.8919 217.934 31.1548 219.322 32.4354L218.694 33.1404ZM59.6323 28.7946L59.0416 28.0566C60.4887 26.8579 61.9843 25.6756 63.4869 24.5426L64.0442 25.3071C62.5528 26.4317 61.0685 27.6049 59.6323 28.7946ZM210.077 25.8884C208.591 24.7501 207.062 23.6331 205.532 22.5686L206.06 21.7832C207.602 22.8556 209.142 23.9809 210.64 25.1281L210.077 25.8884ZM68.6063 22.0288L68.0841 21.2392C69.6329 20.1792 71.2273 19.1412 72.8233 18.1534L73.3094 18.9667C71.7257 19.9468 70.1434 20.9771 68.6063 22.0288ZM200.842 19.4633C199.261 18.4678 197.637 17.4975 196.016 16.5787L196.471 15.7473C198.105 16.673 199.741 17.6511 201.335 18.6537L200.842 19.4633ZM78.1442 16.1272L77.6951 15.2921C79.3337 14.38 81.0138 13.4952 82.6886 12.6617L83.0998 13.5168C81.4377 14.3438 79.7704 15.2219 78.1442 16.1272L78.1442 16.1272ZM191.064 13.922C189.399 13.0783 187.694 12.2631 185.995 11.4994L186.373 10.6289C188.085 11.3985 189.804 12.2199 191.482 13.0702L191.064 13.922ZM88.166 11.1408L87.7941 10.2676C89.5064 9.51263 91.258 8.78857 93.0001 8.1154L93.3322 9.00536C91.6034 9.67318 89.8653 10.3917 88.166 11.1408L88.166 11.1408ZM180.82 9.31604C179.088 8.63266 177.315 7.98063 175.55 7.37835L175.848 6.47584C177.626 7.08301 179.413 7.73991 181.158 8.42888L180.82 9.31604ZM98.6025 7.10949L98.3111 6.20512C100.089 5.61212 101.903 5.05374 103.703 4.54602L103.953 5.46294C102.167 5.96693 100.367 6.52087 98.6025 7.10947L98.6025 7.10949ZM170.21 5.69437C168.425 5.17689 166.605 4.69496 164.8 4.26207L165.015 3.33585C166.834 3.772 168.668 4.25765 170.467 4.77885L170.21 5.69437ZM109.373 4.06896L109.165 3.14113C110.987 2.71751 112.844 2.33156 114.683 1.99417L114.85 2.9306C113.024 3.26567 111.182 3.6486 109.373 4.06895V4.06896ZM159.331 3.08536C157.509 2.73751 155.653 2.42801 153.815 2.16542L153.945 1.22294C155.797 1.48761 157.668 1.79944 159.504 2.14985L159.331 3.08536ZM120.373 2.0497L120.249 1.10629C122.101 0.854868 123.984 0.643417 125.847 0.478447L125.928 1.4265C124.08 1.59053 122.211 1.80013 120.373 2.04969L120.373 2.0497ZM148.263 1.50364C146.42 1.32704 144.544 1.19087 142.687 1.09955L142.732 0.148719C144.603 0.240949 146.493 0.378074 148.35 0.55605L148.263 1.50364ZM131.508 1.06144L131.468 0.110611C133.188 0.0376429 134.941 0.000465385 136.678 0L137.101 0.000677842L137.099 0.952459L136.678 0.951755C134.954 0.95222 133.214 0.989164 131.508 1.06143V1.06144Z" fill="#E6E6E6"/>
        <path d="M136.972 249.667V197.622C136.973 196.893 137.258 196.194 137.765 195.679C138.272 195.163 138.959 194.873 139.676 194.872H145.814C146.531 194.873 147.218 195.163 147.725 195.679C148.232 196.194 148.517 196.893 148.518 197.622V249.667C148.517 250.396 148.232 251.095 147.725 251.61C147.218 252.126 146.531 252.416 145.814 252.417H139.676C138.959 252.416 138.272 252.126 137.765 251.61C137.258 251.095 136.973 250.396 136.972 249.667V249.667Z" fill="#2F2E41"/>
        <path d="M124.831 249.667V197.622C124.832 196.893 125.117 196.194 125.624 195.679C126.131 195.163 126.818 194.873 127.534 194.872H133.673C134.39 194.873 135.077 195.163 135.584 195.679C136.091 196.194 136.376 196.893 136.377 197.622V249.667C136.376 250.396 136.091 251.095 135.584 251.61C135.077 252.126 134.39 252.416 133.673 252.417H127.534C126.818 252.416 126.131 252.126 125.624 251.61C125.117 251.095 124.832 250.396 124.831 249.667V249.667Z" fill="#2F2E41"/>
        <path d="M149.102 180.44H124.247C122.869 180.44 121.751 181.576 121.751 182.978V211.538C121.751 212.94 122.869 214.077 124.247 214.077H149.102C150.48 214.077 151.597 212.94 151.597 211.538V182.978C151.597 181.576 150.48 180.44 149.102 180.44Z" fill="#2F2E41"/>
        <path d="M94.8901 98.6724C94.8901 98.6724 82.3468 104.6 71.7322 108.531C65.1454 93.4054 55.656 93.9714 55.656 93.9714L49.9029 98.001L50.9404 104.045L50.6574 113.926L49.1484 119.107L51.3139 119.505L52.5371 119.731L52.7215 119.561C52.4162 120.791 52.2928 122.061 52.3551 123.328L106.774 114.694C106.774 114.694 104.887 105.772 94.8901 98.6724Z" fill="#E6E6E6"/>
        <path d="M78.8204 176.468L82.469 181.49C83.2881 182.617 84.8507 182.856 85.959 182.022L127.105 151.09C128.213 150.256 128.447 148.667 127.628 147.539L123.98 142.518C123.161 141.39 121.598 141.152 120.49 141.985L79.3441 172.918C78.2357 173.751 78.0013 175.34 78.8204 176.468Z" fill="#FFD194"/>
        <path d="M148.931 140.812L143.509 143.739C142.291 144.396 141.828 145.933 142.474 147.171L166.457 193.143C167.103 194.382 168.614 194.853 169.832 194.196L175.254 191.268C176.471 190.611 176.935 189.075 176.288 187.836L152.305 141.864C151.659 140.626 150.148 140.155 148.931 140.812Z" fill="white"/>
        <path d="M164.132 161.215L155.276 167.187C153.923 167.917 152.302 167.505 151.656 166.267L141.876 147.52C141.23 146.282 141.803 144.686 143.156 143.955L149.184 140.701C150.538 139.97 152.158 140.382 152.804 141.621L165.413 157.65C166.059 158.888 165.486 160.484 164.132 161.215Z" fill="#CCCCCC"/>
        <path d="M103.783 155.723L109.539 163.499C109.992 163.99 110.618 164.277 111.28 164.299C111.941 164.32 112.584 164.073 113.067 163.612L128.279 149.088C128.762 148.627 129.045 147.99 129.066 147.317C129.087 146.644 128.844 145.99 128.391 145.499L124.19 140.946C123.737 140.456 123.111 140.168 122.449 140.146C121.788 140.125 121.145 140.372 120.662 140.833L103.895 152.135C103.412 152.596 103.13 153.232 103.109 153.905C103.088 154.578 103.33 155.232 103.783 155.723V155.723Z" fill="#CCCCCC"/>
        <path d="M150.62 140.064H122.728C121.35 140.064 120.233 141.2 120.233 142.602V202.88C120.233 204.282 121.35 205.419 122.728 205.419H150.62C151.999 205.419 153.116 204.282 153.116 202.88V142.602C153.116 141.2 151.999 140.064 150.62 140.064Z" fill="#CCCCCC"/>
        <path d="M136.511 136.13C148.805 136.13 158.77 125.992 158.77 113.487C158.77 100.982 148.805 90.8444 136.511 90.8444C124.218 90.8444 114.252 100.982 114.252 113.487C114.252 125.992 124.218 136.13 136.511 136.13Z" fill="white"/>
        <path d="M139.106 121.047C137.731 121.008 136.019 120.959 134.702 119.98C134.309 119.676 133.987 119.289 133.757 118.845C133.527 118.401 133.395 117.912 133.371 117.41C133.347 117.054 133.405 116.698 133.539 116.368C133.673 116.038 133.88 115.745 134.145 115.51C134.833 114.918 135.838 114.779 136.922 115.103L135.799 106.757L136.624 106.643L137.943 116.454L137.255 116.133C136.458 115.76 135.362 115.571 134.682 116.156C134.515 116.309 134.384 116.499 134.301 116.711C134.218 116.924 134.184 117.153 134.202 117.381C134.222 117.754 134.321 118.118 134.492 118.448C134.663 118.779 134.902 119.068 135.193 119.297C136.217 120.058 137.582 120.157 139.13 120.201L139.106 121.047Z" fill="#2F2E41"/>
        <path d="M131.724 107.477H127.244V108.323H131.724V107.477Z" fill="#2F2E41"/>
        <path d="M145.865 107.477H141.385V108.323H145.865V107.477Z" fill="#2F2E41"/>
        <path d="M121.807 95.7928C118.199 95.3743 115.405 91.8581 115.098 88.2904C114.733 84.0461 117.163 80.0149 120.497 77.6331C123.983 75.1424 128.326 74.1022 132.529 73.8733C140.727 73.4583 148.784 76.1597 155.133 81.4521C158.282 84.1126 161.223 87.5016 162.338 91.5951C163.306 95.1502 162.518 99.1776 159.707 101.667C159.012 102.278 158.2 102.735 157.322 103.009C156.444 103.284 155.52 103.371 154.608 103.264C152.427 103.034 150.415 101.868 148.673 100.579C145.284 98.0731 142.503 94.582 138.375 93.2724C135.348 92.3122 131.42 93.1574 129.57 95.9418C129.15 96.5792 128.878 97.3052 128.775 98.0651C128.736 98.2271 128.76 98.3979 128.841 98.5429C128.922 98.6878 129.054 98.796 129.21 98.8457C129.37 98.8894 129.54 98.8674 129.684 98.7844C129.827 98.7014 129.933 98.5642 129.978 98.4025C130.463 94.8954 134.703 93.5868 137.677 94.3877C142.015 95.5554 144.926 99.4926 148.485 101.994C150.356 103.309 152.484 104.361 154.779 104.549C156.757 104.707 158.72 104.094 160.27 102.833C163.31 100.391 164.473 96.1913 163.801 92.4098C163.022 88.0308 160.125 84.2777 156.946 81.3721C150.501 75.5437 142.133 72.3995 133.511 72.566C129.114 72.6687 124.525 73.5922 120.737 75.9566C117.062 78.2501 114.221 82.087 113.85 86.547C113.523 90.4727 115.594 94.5788 119.148 96.2987C119.986 96.7025 120.885 96.9605 121.807 97.0621C122.603 97.1544 122.597 95.8845 121.807 95.7928H121.807Z" fill="#2F2E41"/>
        <path d="M52.4963 118.963L55.1371 118.1C55.42 117.548 54.9022 117.902 55.1493 117.366C61.8305 102.867 55.6558 93.9714 55.6558 93.9714L50.8791 97.317C50.8674 97.2895 50.8578 97.261 50.8458 97.2333C50.8459 97.2333 49.997 95.3146 48.6767 96.7536C48.6767 96.7536 52.8264 107.019 48.2051 119.779L53.5809 122.273L55.6558 119.779L55.7029 119.539L51.9896 119.195L52.4963 118.963Z" fill="#CCCCCC"/>
        <path d="M127.805 172.832C106.584 168.035 86.826 177.965 86.826 177.965L86.7722 177.916L78.9037 170.769L48.1577 119.731L55.6556 119.779C76.4987 107.115 105.83 108.842 105.83 108.842C118.468 123.424 127.805 172.832 127.805 172.832Z" fill="#3F3D56"/>
        <path opacity="0.1" d="M86.7722 177.916L78.9037 170.77L48.1577 119.731L55.6556 119.779C55.6556 119.779 85.5395 159.928 86.7722 177.916Z" fill="black"/>
        <path d="M90.2257 138.093C96.6496 136.088 100.842 131.096 99.5894 126.943C98.337 122.789 92.114 121.046 85.6901 123.051C79.2662 125.055 75.0739 130.047 76.3264 134.201C77.5789 138.354 83.8018 140.097 90.2257 138.093Z" fill="white"/>
        <path d="M24.5435 94.9841C22.8492 101.355 17.0456 105.301 17.0456 105.301C17.0456 105.301 13.9892 98.9172 15.6835 92.546C17.3779 86.1747 23.1814 82.2289 23.1814 82.2289C23.1814 82.2289 26.2379 88.6128 24.5435 94.9841Z" fill="white"/>
        <path d="M9.12983 94.9841C10.8242 101.355 16.6277 105.301 16.6277 105.301C16.6277 105.301 19.6842 98.9172 17.9898 92.546C16.2955 86.1747 10.4919 82.2289 10.4919 82.2289C10.4919 82.2289 7.43548 88.6128 9.12983 94.9841Z" fill="white"/>
        <path d="M11.6195 93.6148C16.2688 98.2187 16.8367 105.296 16.8367 105.296C16.8367 105.296 9.86653 104.909 5.2172 100.305C0.567876 95.701 0 88.6238 0 88.6238C0 88.6238 6.97016 89.0109 11.6195 93.6148Z" fill="#3F3D56"/>
        <path d="M22.0541 93.6148C17.4048 98.2187 16.8369 105.296 16.8369 105.296C16.8369 105.296 23.8071 104.909 28.4564 100.305C33.1057 95.701 33.6736 88.6238 33.6736 88.6238C33.6736 88.6238 26.7034 89.0109 22.0541 93.6148Z" fill="#3F3D56"/>
        <path d="M257.87 166.907C256.176 173.278 250.372 177.224 250.372 177.224C250.372 177.224 247.316 170.84 249.01 164.469C250.705 158.098 256.508 154.152 256.508 154.152C256.508 154.152 259.564 160.536 257.87 166.907Z" fill="white"/>
        <path d="M242.456 166.907C244.151 173.278 249.954 177.224 249.954 177.224C249.954 177.224 253.011 170.84 251.316 164.469C249.622 158.098 243.819 154.152 243.819 154.152C243.819 154.152 240.762 160.536 242.456 166.907Z" fill="white"/>
        <path d="M244.946 165.538C249.595 170.142 250.163 177.219 250.163 177.219C250.163 177.219 243.193 176.832 238.544 172.228C233.895 167.624 233.327 160.547 233.327 160.547C233.327 160.547 240.297 160.934 244.946 165.538Z" fill="#3F3D56"/>
        <path d="M255.38 165.538C250.731 170.142 250.163 177.219 250.163 177.219C250.163 177.219 257.133 176.832 261.783 172.228C266.432 167.624 267 160.547 267 160.547C267 160.547 260.03 160.934 255.38 165.538Z" fill="#3F3D56"/>
        <path d="M185.481 252.154H88.9897V253H185.481V252.154Z" fill="#3F3D56"/>
    </g>
    <defs>
        <clipPath id="clip0_43_353">
            <rect width="267" height="253" fill="white"/>
        </clipPath>
    </defs>
</svg>
