<svg class='image' viewBox="0 0 242 162" fill="none" xmlns="http://www.w3.org/2000/svg">
    <path d="M234.864 156.892H6.7583V157.382H234.864V156.892Z" fill="#3F3D56"/>
    <path d="M24.6996 67.988L24.5083 68.4393L234.602 157.096L234.793 156.645L24.6996 67.988Z" fill="#3F3D56"/>
    <path d="M234.864 67.9471H6.7583V68.4371H234.864V67.9471Z" fill="#3F3D56"/>
    <path d="M203.926 78.6058C203.958 88.9742 201.942 99.2472 197.993 108.838C194.044 118.428 188.24 127.148 180.912 134.499C180.104 135.31 179.278 136.102 178.435 136.876C177.418 137.812 176.375 138.719 175.306 139.598C175.103 139.767 174.899 139.934 174.693 140.098C170.47 143.512 165.897 146.472 161.05 148.926C160.763 149.071 160.476 149.215 160.186 149.357C159.727 149.583 159.263 149.803 158.799 150.019C141.62 157.996 122.084 159.319 103.982 153.731C72.2905 143.915 49.2368 113.995 49.2368 78.6058C49.2368 35.2336 83.8652 0.074707 126.582 0.074707C169.298 0.074707 203.926 35.2336 203.926 78.6058Z" fill="white"/>
    <path d="M143.802 62.1317L143.864 62.1293L143.621 61.5986C143.349 60.8469 143.017 60.1183 142.627 59.4201L135.523 43.8534C135.296 43.3566 134.929 42.9367 134.466 42.6451C134.004 42.3535 133.466 42.2031 132.919 42.2122L123.921 42.3618C123.34 42.3714 122.775 42.5611 122.306 42.9046C121.837 43.2481 121.486 43.7285 121.302 44.2794L115.646 61.2323C115.46 61.707 115.298 62.1911 115.162 62.6824L114.97 63.258L115.015 63.2563C114.491 65.492 114.492 67.8182 115.016 70.0537C115.541 72.2893 116.576 74.3736 118.041 76.1443C119.506 77.9151 121.36 79.3243 123.461 80.2622C125.561 81.2002 127.849 81.6414 130.149 81.5516C132.448 81.4618 134.695 80.8433 136.715 79.7445C138.735 78.6456 140.474 77.096 141.795 75.2164C143.117 73.3368 143.986 71.1781 144.334 68.9085C144.682 66.6389 144.5 64.3197 143.802 62.1317H143.802Z" fill="#3F3D56"/>
    <path d="M127.034 46.1686L124.203 61.6136L124.522 61.672L127.353 46.227L127.034 46.1686Z" fill="#FFD194"/>
    <path d="M130.437 46.1118L130.119 46.1807L133.461 61.5236L133.779 61.4547L130.437 46.1118Z" fill="#FFD194"/>
    <path d="M122.941 34.7598L134.47 34.5682C134.556 34.5667 134.639 34.5995 134.701 34.6593C134.763 34.719 134.798 34.8009 134.8 34.8869C134.801 34.9728 134.768 35.0558 134.709 35.1176C134.649 35.1794 134.567 35.2149 134.481 35.2163L122.951 35.408C122.909 35.4087 122.866 35.401 122.827 35.3854C122.787 35.3698 122.751 35.3465 122.72 35.3169C122.689 35.2873 122.665 35.252 122.648 35.2129C122.631 35.1739 122.622 35.1319 122.621 35.0893C122.62 35.0468 122.628 35.0045 122.644 34.9649C122.659 34.9253 122.683 34.8892 122.712 34.8586C122.742 34.828 122.778 34.8035 122.817 34.7866C122.856 34.7696 122.898 34.7605 122.941 34.7598Z" fill="#3F3D56"/>
    <path d="M123.063 37.1892L134.592 36.9975C134.678 36.9961 134.761 37.0289 134.823 37.0886C134.885 37.1484 134.921 37.2303 134.922 37.3162C134.923 37.4022 134.891 37.4852 134.831 37.547C134.771 37.6087 134.689 37.6443 134.603 37.6457L123.073 37.8374C122.987 37.8388 122.904 37.806 122.842 37.7463C122.78 37.6865 122.745 37.6046 122.743 37.5187C122.742 37.4327 122.775 37.3497 122.834 37.2879C122.894 37.2261 122.976 37.1906 123.063 37.1892Z" fill="#3F3D56"/>
    <path d="M123.184 39.6185L134.713 39.4268C134.8 39.4254 134.883 39.4582 134.945 39.5179C135.007 39.5777 135.042 39.6596 135.044 39.7455C135.045 39.8315 135.012 39.9145 134.952 39.9763C134.892 40.0381 134.81 40.0736 134.724 40.075L123.195 40.2667C123.109 40.2681 123.026 40.2353 122.964 40.1756C122.902 40.1158 122.866 40.0339 122.865 39.948C122.863 39.862 122.896 39.779 122.956 39.7172C123.016 39.6554 123.098 39.6199 123.184 39.6185Z" fill="#3F3D56"/>
    <path d="M128.667 32.3524C126.38 32.3904 124.547 33.6931 124.574 35.262L132.855 35.1244C132.829 33.5554 130.954 32.3143 128.667 32.3524Z" fill="#3F3D56"/>
    <path d="M129.941 63.8946C130.393 63.9251 130.821 64.1077 131.155 64.4125C131.241 64.4833 131.325 64.5576 131.41 64.632C131.677 64.9102 132.004 65.1239 132.367 65.2568C133.16 65.4729 133.943 64.8467 134.605 64.2056L134.831 64.438C134.104 65.143 133.233 65.8285 132.281 65.5695C131.87 65.4251 131.498 65.1873 131.195 64.8749C131.113 64.8026 131.031 64.7306 130.948 64.6619C130.677 64.4373 130.153 64.0878 129.687 64.269C129.493 64.3631 129.321 64.4956 129.181 64.6583C129.072 64.7724 128.955 64.8778 128.83 64.9736C128.574 65.1549 128.27 65.2566 127.956 65.2659C127.643 65.2752 127.333 65.1917 127.067 65.026C126.971 64.9623 126.879 64.8934 126.791 64.8196C126.647 64.6765 126.467 64.5743 126.27 64.5233C125.994 64.4847 125.743 64.6813 125.477 64.8892C125.226 65.1331 124.905 65.2924 124.558 65.3449C124.546 65.3454 124.534 65.3459 124.523 65.3461C123.875 65.3568 123.465 64.7108 123.211 64.2196L123.5 64.0711C123.845 64.7387 124.177 65.0431 124.541 65.0211C124.819 64.9679 125.075 64.8332 125.277 64.6342C125.584 64.3936 125.902 64.1448 126.315 64.2022C126.571 64.258 126.807 64.3846 126.996 64.5676C127.075 64.6338 127.157 64.6958 127.243 64.7532C127.454 64.8823 127.699 64.9472 127.947 64.9399C128.195 64.9325 128.435 64.8532 128.638 64.7118C128.75 64.6257 128.854 64.5312 128.951 64.4292C129.122 64.2334 129.332 64.076 129.568 63.9671C129.687 63.9209 129.814 63.8964 129.941 63.8946Z" fill="#FFD194"/>
    <path d="M129.033 0H128.695V32.3391H129.033V0Z" fill="#3F3D56"/>
    <path d="M230.91 56.0303C228.852 63.6226 221.802 68.3247 221.802 68.3247C221.802 68.3247 218.089 60.7173 220.147 53.125C222.206 45.5327 229.255 40.8306 229.255 40.8306C229.255 40.8306 232.968 48.438 230.91 56.0303Z" fill="#FFD194"/>
    <path d="M212.186 56.0303C214.245 63.6226 221.294 68.3247 221.294 68.3247C221.294 68.3247 225.007 60.7173 222.949 53.125C220.891 45.5327 213.841 40.8306 213.841 40.8306C213.841 40.8306 210.128 48.438 212.186 56.0303Z" fill="#FFD194"/>
    <path d="M215.211 54.3987C220.859 59.8849 221.548 68.3185 221.548 68.3185C221.548 68.3185 213.082 67.8572 207.434 62.371C201.786 56.8847 201.097 48.4511 201.097 48.4511C201.097 48.4511 209.563 48.9124 215.211 54.3987Z" fill="#3F3D56"/>
    <path d="M227.885 54.3987C222.238 59.8849 221.548 68.3185 221.548 68.3185C221.548 68.3185 230.015 67.8572 235.662 62.371C241.31 56.8847 242 48.4511 242 48.4511C242 48.4511 233.533 48.9124 227.885 54.3987Z" fill="#3F3D56"/>
    <path d="M29.8136 144.73C27.7554 152.322 20.7058 157.024 20.7058 157.024C20.7058 157.024 16.9931 149.417 19.0512 141.825C21.1094 134.232 28.159 129.53 28.159 129.53C28.159 129.53 31.8717 137.138 29.8136 144.73Z" fill="#FFD194"/>
    <path d="M11.0898 144.73C13.1479 152.322 20.1976 157.024 20.1976 157.024C20.1976 157.024 23.9103 149.417 21.8521 141.825C19.794 134.232 12.7444 129.53 12.7444 129.53C12.7444 129.53 9.03164 137.138 11.0898 144.73Z" fill="#FFD194"/>
    <path d="M14.1144 143.098C19.762 148.585 20.4518 157.018 20.4518 157.018C20.4518 157.018 11.985 156.557 6.33741 151.071C0.689811 145.584 0 137.151 0 137.151C0 137.151 8.46676 137.612 14.1144 143.098Z" fill="#3F3D56"/>
    <path d="M26.7896 143.098C21.142 148.585 20.4521 157.018 20.4521 157.018C20.4521 157.018 28.9189 156.557 34.5665 151.071C40.2141 145.584 40.9039 137.151 40.9039 137.151C40.9039 137.151 32.4372 137.612 26.7896 143.098Z" fill="#3F3D56"/>
    <path d="M164.595 74.5918C167.204 74.5918 169.318 72.4817 169.318 69.8789C169.318 67.276 167.204 65.1659 164.595 65.1659C161.987 65.1659 159.873 67.276 159.873 69.8789C159.873 72.4817 161.987 74.5918 164.595 74.5918Z" fill="#2F2E41"/>
    <path d="M159.535 67.859C159.535 66.6966 159.966 65.5753 160.744 64.7105C161.522 63.8457 162.594 63.2985 163.752 63.174C163.092 63.1021 162.425 63.1696 161.793 63.3723C161.162 63.575 160.58 63.9082 160.086 64.3502C159.592 64.7922 159.197 65.3331 158.926 65.9377C158.656 66.5423 158.516 67.1969 158.516 67.859C158.516 68.5211 158.656 69.1758 158.926 69.7804C159.197 70.3849 159.592 70.9258 160.086 71.3679C160.58 71.8099 161.162 72.1431 161.793 72.3457C162.425 72.5484 163.092 72.616 163.752 72.5441C162.594 72.4196 161.522 71.8723 160.744 71.0076C159.966 70.1428 159.535 69.0214 159.535 67.859Z" fill="#2F2E41"/>
    <path d="M159.872 69.8788C159.872 69.8788 159.139 73.2452 163.722 74.5918L159.872 69.8788Z" fill="#FFD194"/>
    <path d="M166.548 101.891C175.305 101.891 182.404 94.8076 182.404 86.0693C182.404 77.3311 175.305 70.2473 166.548 70.2473C157.792 70.2473 150.693 77.3311 150.693 86.0693C150.693 94.8076 157.792 101.891 166.548 101.891Z" fill="#2F2E41"/>
    <path d="M175.306 139.598C175.102 139.767 174.899 139.933 174.692 140.098C170.47 143.512 165.897 146.472 161.05 148.926C160.763 149.071 160.476 149.215 160.186 149.357C159.727 149.583 159.263 149.803 158.799 150.019L150.671 147.316L150.765 145.373V145.366L151.118 137.956L151.239 135.423L175.306 139.598Z" fill="#A0616A"/>
    <path d="M160.186 149.357C159.727 149.583 159.263 149.803 158.799 150.019C155.624 151.5 152.349 152.758 148.999 153.785C148.982 153.736 148.972 153.685 148.97 153.633L150.671 145.334L150.765 145.373L160.186 149.357Z" fill="#2F2E41"/>
    <path d="M162.591 102.856C168.389 102.856 173.09 98.1647 173.09 92.378C173.09 86.5913 168.389 81.9002 162.591 81.9002C156.792 81.9002 152.091 86.5913 152.091 92.378C152.091 98.1647 156.792 102.856 162.591 102.856Z" fill="#A0616A"/>
    <path d="M171.104 92.9443C171.104 92.9443 172.806 101.44 175.928 103.422L158.618 123.811L152.091 117.581L156.915 109.086C156.915 109.086 162.307 105.971 160.604 101.723L171.104 92.9443Z" fill="#A0616A"/>
    <path d="M191.647 121.081C188.57 125.931 184.97 130.431 180.912 134.499C180.737 130.701 180.359 127.569 179.618 126.643C179.616 126.643 179.614 126.642 179.613 126.641L170.535 123.811C170.535 123.811 172.522 105.12 177.346 104.272C177.346 104.272 178.046 104.414 179.134 104.743C182.64 105.796 190.168 108.766 191.251 115.031C191.559 117.033 191.692 119.057 191.647 121.081Z" fill="#A0616A"/>
    <path d="M156.915 109.086C156.915 109.086 148.402 108.803 143.01 115.599C137.618 122.395 124.565 127.493 124.565 127.493L91.9304 140.236C91.9304 140.236 85.9712 129.758 82.2821 133.44C78.593 137.121 89.0927 146.466 93.9169 145.333C98.741 144.2 127.97 135.422 127.97 135.422L151.239 124.944L156.915 109.086Z" fill="#A0616A"/>
    <path d="M179.618 126.643L178.434 136.876C177.418 137.812 176.375 138.719 175.306 139.598C175.102 139.767 174.899 139.933 174.692 140.098C166.499 137.591 153.659 137.87 151.118 137.956C150.828 137.963 150.671 137.971 150.671 137.971L150.389 132.024C147.666 131.12 146.772 129.143 146.748 126.967C146.706 123.022 149.537 118.43 149.537 118.43C150.045 117.923 153.844 110.736 154.629 109.246C154.72 109.072 154.772 108.977 154.772 108.977L158.177 108.129C158.177 108.129 158.168 108.156 158.148 108.205C157.843 109.055 155.197 116.747 159.754 117.014C164.237 117.278 173.99 104.713 175.333 102.952C175.434 102.819 175.488 102.748 175.488 102.748L179.178 104.731C179.164 104.735 179.149 104.738 179.134 104.743C176.88 105.368 174.793 110.785 174.793 110.785C168.907 121.135 179.355 126.511 179.613 126.641C179.614 126.642 179.616 126.643 179.618 126.643Z" fill="#D0CDE1"/>
    <path d="M163.161 80.0792C157.572 80.0792 153.041 82.7168 153.041 85.9704C153.041 87.4262 153.952 88.7567 155.455 89.7846L157.403 88.3759L156.874 90.5828C157.093 90.6844 157.318 90.7829 157.552 90.8738L160.463 87.4853V91.6481C161.355 91.7908 162.257 91.8622 163.161 91.8616C168.751 91.8616 173.282 89.224 173.282 85.9704C173.282 82.7168 168.751 80.0792 163.161 80.0792Z" fill="#2F2E41"/>
    <path d="M183.892 81.9546C186.5 81.9546 188.615 79.8445 188.615 77.2416C188.615 74.6387 186.5 72.5287 183.892 72.5287C181.283 72.5287 179.169 74.6387 179.169 77.2416C179.169 79.8445 181.283 81.9546 183.892 81.9546Z" fill="#2F2E41"/>
    <path d="M178.832 75.2218C178.832 74.0594 179.263 72.9381 180.041 72.0733C180.819 71.2085 181.89 70.6612 183.049 70.5367C182.881 70.5185 182.712 70.5092 182.543 70.5089C181.9 70.5079 181.265 70.6377 180.675 70.8902C180.085 71.1427 179.552 71.5126 179.11 71.9774C178.668 72.4422 178.326 72.992 178.104 73.5933C177.882 74.1947 177.785 74.8348 177.82 75.4747C177.854 76.1145 178.019 76.7406 178.304 77.3148C178.589 77.8889 178.989 78.399 179.478 78.8138C179.968 79.2286 180.537 79.5395 181.151 79.7275C181.764 79.9154 182.41 79.9764 183.049 79.9069C181.89 79.7823 180.819 79.2351 180.041 78.3703C179.263 77.5055 178.832 76.3842 178.832 75.2218Z" fill="#2F2E41"/>
    <path d="M179.169 77.2416C179.169 77.2416 178.436 80.608 183.019 81.9546L179.169 77.2416Z" fill="#FFD194"/>
    <path d="M173.516 93.3691C173.969 93.3691 174.336 92.545 174.336 91.5284C174.336 90.5118 173.969 89.6877 173.516 89.6877C173.063 89.6877 172.696 90.5118 172.696 91.5284C172.696 92.545 173.063 93.3691 173.516 93.3691Z" fill="#A0616A"/>
    <path d="M83.0368 98.6494L70.5936 101.658L70.553 101.667L69.2004 102.889L68.8111 103.241L67.9765 103.09L66.499 102.823L67.5286 99.3557L67.7217 92.7416L67.0138 88.696L70.9391 85.999C70.9391 85.999 78.5967 85.5495 83.0368 98.6494Z" fill="#D0CDE1"/>
    <path opacity="0.1" d="M70.5936 101.658C70.425 102.017 70.7782 101.78 70.5852 102.149L68.7834 102.727L67.9765 103.09L66.499 102.823L67.5286 99.3557L67.7217 92.7415L67.0138 88.696L70.9391 85.999C70.9391 85.999 75.1521 91.953 70.5936 101.658Z" fill="black"/>
    <path d="M97.7086 89.1455C97.7086 89.1455 81.3639 96.7229 74.736 97.8788C68.108 99.0346 68.6871 105.649 68.6871 105.649L105.817 99.8694C105.817 99.8694 104.53 93.8974 97.7086 89.1455Z" fill="#D0CDE1"/>
    <path d="M66.1772 87.8612C66.1772 87.8612 69.0086 94.7322 65.8555 103.273L69.5234 104.942L70.9391 103.273L70.9712 103.112L67.0781 102.759C67.0781 102.759 70.2956 94.1543 67.6572 88.1823C67.6573 88.1823 67.0781 86.898 66.1772 87.8612Z" fill="#FFD194"/>
    <path d="M120.166 138.784C105.688 135.573 92.2064 142.219 92.2064 142.219L92.1698 142.186L86.8011 137.403L65.8232 103.241L70.939 103.273C85.1602 94.7964 105.173 95.9523 105.173 95.9523C113.796 105.713 120.166 138.784 120.166 138.784Z" fill="#3F3D56"/>
    <path opacity="0.1" d="M92.1698 142.186L86.8011 137.403L65.8232 103.241L70.939 103.273C70.939 103.273 91.3287 130.146 92.1698 142.186Z" fill="black"/>
    <path d="M94.5259 115.531C98.9089 114.19 101.769 110.848 100.915 108.068C100.06 105.288 95.8142 104.121 91.4312 105.463C87.0482 106.804 84.1879 110.146 85.0424 112.926C85.897 115.706 90.1429 116.873 94.5259 115.531Z" fill="#D0CDE1"/>
    <path d="M6.82442 72.5653C9.40096 72.5653 11.4897 70.4809 11.4897 67.9098C11.4897 65.3386 9.40096 63.2542 6.82442 63.2542C4.24788 63.2542 2.15918 65.3386 2.15918 67.9098C2.15918 70.4809 4.24788 72.5653 6.82442 72.5653Z" fill="#3F3D56"/>
    <path d="M234.685 162C237.261 162 239.35 159.916 239.35 157.344C239.35 154.773 237.261 152.689 234.685 152.689C232.108 152.689 230.02 154.773 230.02 157.344C230.02 159.916 232.108 162 234.685 162Z" fill="#3F3D56"/>
    <path d="M27.2041 72.0752C29.2382 72.0752 30.8872 70.4297 30.8872 68.3998C30.8872 66.3699 29.2382 64.7244 27.2041 64.7244C25.17 64.7244 23.521 66.3699 23.521 68.3998C23.521 70.4297 25.17 72.0752 27.2041 72.0752Z" fill="#FFD194"/>
    <path d="M234.685 72.0752C236.719 72.0752 238.368 70.4297 238.368 68.3998C238.368 66.3699 236.719 64.7244 234.685 64.7244C232.65 64.7244 231.001 66.3699 231.001 68.3998C231.001 70.4297 232.65 72.0752 234.685 72.0752Z" fill="#FFD194"/>
    <path d="M6.8242 160.53C8.85831 160.53 10.5073 158.884 10.5073 156.854C10.5073 154.825 8.85831 153.179 6.8242 153.179C4.79009 153.179 3.14111 154.825 3.14111 156.854C3.14111 158.884 4.79009 160.53 6.8242 160.53Z" fill="#FFD194"/>
</svg>
